<svg width="24" height="24" viewBox="0 0 24 24" fill="none" xmlns="http://www.w3.org/2000/svg">
<path d="M6.44444 8.66664H17.5556M6.44444 13.1111H17.5556M22 20.8889L18.3063 19.042C18.0263 18.902 17.8863 18.832 17.7396 18.7826C17.6093 18.7389 17.4752 18.7072 17.3391 18.6881C17.1858 18.6666 17.0292 18.6666 16.7162 18.6666H5.55556C4.31099 18.6666 3.68871 18.6666 3.21336 18.4244C2.79521 18.2114 2.45526 17.8714 2.24221 17.4533C2 16.978 2 16.3556 2 15.1111V6.66664C2 5.42207 2 4.7998 2.24221 4.32444C2.45526 3.9063 2.79521 3.56634 3.21336 3.35329C3.68871 3.11108 4.311 3.11108 5.55556 3.11108H18.4444C19.689 3.11108 20.3113 3.11108 20.7867 3.35329C21.2048 3.56634 21.5448 3.9063 21.7578 4.32444C22 4.7998 22 5.42208 22 6.66664V20.8889Z" stroke="currentColor" stroke-width="3" stroke-linecap="round" stroke-linejoin="round"/>
</svg>
