<svg width="24" height="24" viewBox="0 0 24 24" fill="none" xmlns="http://www.w3.org/2000/svg">
<path d="M10.584 18C9.97599 16.944 9.08799 15.56 7.91999 13.848C7.83999 13.736 7.75199 13.632 7.65599 13.536C7.62399 13.52 7.61199 13.496 7.61999 13.464C7.62799 13.432 7.64799 13.408 7.67999 13.392C8.47999 12.992 9.13599 12.424 9.64799 11.688C10.176 10.92 10.44 10.088 10.44 9.19196C10.44 8.34396 10.232 7.55996 9.81599 6.83996C9.39999 6.11996 8.83199 5.55196 8.11199 5.13596C7.39199 4.71996 6.61199 4.51196 5.77199 4.51196C4.93199 4.51196 4.15199 4.71996 3.43199 5.13596C2.71199 5.55196 2.14399 6.11996 1.72799 6.83996C1.31199 7.55996 1.10399 8.34396 1.10399 9.19196C1.10399 10.088 1.36799 10.92 1.89599 11.688C2.40799 12.424 3.06399 12.992 3.86399 13.392C3.89599 13.408 3.91599 13.432 3.92399 13.464C3.93199 13.496 3.91999 13.52 3.88799 13.536C3.77599 13.632 3.68799 13.736 3.62399 13.848C2.40799 15.64 1.51999 17.024 0.959989 18C0.703989 18.432 0.575989 18.776 0.575989 19.032C0.575989 19.416 0.811989 19.768 1.28399 20.088C1.75599 20.408 2.38799 20.66 3.17999 20.844C3.97199 21.028 4.83599 21.12 5.77199 21.12C6.70799 21.12 7.57599 21.028 8.37599 20.844C9.17599 20.66 9.80799 20.408 10.272 20.088C10.736 19.768 10.968 19.416 10.968 19.032C10.968 18.76 10.84 18.416 10.584 18ZM23.04 18C22.432 16.944 21.544 15.56 20.376 13.848C20.296 13.736 20.208 13.632 20.112 13.536C20.08 13.52 20.068 13.496 20.076 13.464C20.084 13.432 20.096 13.408 20.112 13.392C20.928 12.992 21.592 12.424 22.104 11.688C22.632 10.92 22.896 10.088 22.896 9.19196C22.896 8.34396 22.688 7.55996 22.272 6.83996C21.856 6.11996 21.288 5.55196 20.568 5.13596C19.848 4.71996 19.064 4.51196 18.216 4.51196C17.368 4.51196 16.588 4.71996 15.876 5.13596C15.164 5.55196 14.6 6.11996 14.184 6.83996C13.768 7.55996 13.56 8.34396 13.56 9.19196C13.56 10.088 13.824 10.92 14.352 11.688C14.848 12.424 15.504 12.992 16.32 13.392C16.352 13.408 16.372 13.432 16.38 13.464C16.388 13.496 16.376 13.52 16.344 13.536C16.232 13.632 16.136 13.736 16.056 13.848C14.888 15.592 14.008 16.976 13.416 18C13.16 18.432 13.032 18.776 13.032 19.032C13.032 19.416 13.264 19.768 13.728 20.088C14.192 20.408 14.824 20.66 15.624 20.844C16.424 21.028 17.292 21.12 18.228 21.12C19.164 21.12 20.028 21.028 20.82 20.844C21.612 20.66 22.244 20.408 22.716 20.088C23.188 19.768 23.424 19.416 23.424 19.032C23.424 18.76 23.296 18.416 23.04 18Z" fill="currentColor"/>
</svg>
