<svg width="24" height="24" viewBox="0 0 24 24" fill="none" xmlns="http://www.w3.org/2000/svg">
<path fill-rule="evenodd" clip-rule="evenodd" d="M20.6707 23.9813C21.554 23.9803 22.4008 23.6286 23.0251 23.0034C23.6494 22.3783 24 21.5309 24 20.6474L24 3.33389C24 2.44969 23.6488 1.6017 23.0237 0.976473C22.3986 0.351247 21.5507 -2.14123e-07 20.6667 -2.91409e-07L3.33333 -1.80674e-06C2.44928 -1.88402e-06 1.60143 0.351245 0.976313 0.976471C0.351191 1.6017 1.88399e-06 2.44968 1.80669e-06 3.33389L2.91458e-07 20.6661C-6.22613e-08 21.1043 0.0863505 21.5381 0.254116 21.9429C0.421882 22.3476 0.667772 22.7153 0.977724 23.0249C1.28768 23.3346 1.65561 23.5801 2.06049 23.7474C2.46537 23.9147 2.89926 24.0005 3.33733 24L20.6707 23.9813ZM21.3333 3.33389L21.3333 20.6474C21.3333 20.8243 21.2631 20.9939 21.1381 21.1189C21.013 21.244 20.8435 21.3142 20.6667 21.3142L9.33333 21.3329L9.33333 2.66711L20.6667 2.66711C20.8435 2.66711 21.013 2.73736 21.1381 2.86241C21.2631 2.98745 21.3333 3.15705 21.3333 3.33389Z" fill="currentColor"/>
</svg>
